. 
  
http://www.torrenting.com/        :     Greatest Movie Tracker on The Net!!!
 
http://www.Torrenting.com          :     Once & For all ;)


               www . Torrenting . Com 

(((((((((((((= Enjoy No RAR releases =))))))))))))))))))))


...................................NFO:....................................

.[img]http://img155.imageshack.us/img155/9531/bereavementdvdpackaging.jpg[/img]

[color=blue][size=5][b]Bereavement.2010.DVDRip.XVID.AC3.HQ.Hive-CM8[/b][/size][/color]


[b]Thx Hive

CM8 Doing It Right The First Time :D


Source: DVD-5

Encode:

dvd was not the greatest in bitrate since the complete disc was shrinked to dvd-5 size regardless the bonus material.
Audio is 5.1 but sounds a bit strange if you ask me.
Looks like the producer intended it to be like that, all action scenes have perfect 5.1, its just when the actors speak it sounds different.
but its no biggy.
Still made the usual,brightness,sharpness,rgb
looks like a very nice movie.

btw: there is a scene after the endcredits

I attached the deleted scenes in a seperate file with lower bitrate for the one who want to see them afterwards. 
if not just deselect them.
enjoy

Video: 720x304 @bitrate 1800 2pass
Audio: English AC3 5.1 448
Sample: yes included[/b]


[url]http://www.imdb.com/title/tt1100051/[/url]


General
Complete name                    : Bereavement.2010.DVDRip.XVID.AC3.HQ.Hive-CM8.avi
Format                           : AVI
Format/Info                      : Audio Video Interleave
File size                        : 1.69 GiB
Duration                         : 1h 47mn
Overall bit rate                 : 2 257 Kbps
Writing application              : Nandub v1.0rc2
Writing library                  : Nandub build 1853/release

Video
ID                               : 0
Format                           : MPEG-4 Visual
Format profile                   : Advanced Simple@L5
Format settings, BVOP            : 1
Format settings, QPel            : Yes
Format settings, GMC             : No warppoints
Format settings, Matrix          : Default (H.263)
Muxing mode                      : Packed bitstream
Codec ID                         : XVID
Codec ID/Hint                    : XviD
Duration                         : 1h 47mn
Bit rate                         : 1 800 Kbps
Width                            : 720 pixels
Height                           : 304 pixels
Display aspect ratio             : 2.35:1
Frame rate                       : 23.976 fps
Color space                      : YUV
Chroma subsampling               : 4:2:0
Bit depth                        : 8 bits
Scan type                        : Progressive
Compression mode                 : Lossy
Bits/(Pixel*Frame)               : 0.343
Stream size                      : 1.35 GiB (80%)
Writing library                  : XviD 1.2.1 (UTC 2008-12-04)

Audio
ID                               : 1
Format                           : AC-3
Format/Info                      : Audio Coding 3
Mode extension                   : CM (complete main)
Codec ID                         : 2000
Duration                         : 1h 47mn
Bit rate mode                    : Constant
Bit rate                         : 448 Kbps
Channel(s)                       : 6 channels
Channel positions                : Front: L C R, Side: L R, LFE
Sampling rate                    : 48.0 KHz
Bit depth                        : 16 bits
Compression mode                 : Lossy
Stream size                      : 344 MiB (20%)
Alignment                        : Split accross interleaves
Interleave, duration             : 42 ms (1.00 video frame)
Interleave, preload duration     : 500 ms





Alexandra Daddario ... 	Allison
Michael Biehn	... 	Jonathan Miller
Peyton List	... 	Wendy
John Savage	... 	Ted
Nolan Gerard Funk	... 	William


The horrific account of 6 year old Martin Bristol, abducted from his backyard swing and forced to witness 
the brutal crimes of a deranged madman. 


[img]http://img571.imageshack.us/img571/6384/bebbee.png[/img]
[img]http://img20.imageshack.us/img20/4687/bebebbebeebebee.png[/img]
[img]http://img709.imageshack.us/img709/9734/bebebebebbebeebebee.png[/img]
[img]http://img820.imageshack.us/img820/9180/bebebebebebebbebeebebee.png[/img]
[img]http://img822.imageshack.us/img822/599/bebebebebee.png[/img]
[img]http://img59.imageshack.us/img59/6964/bebbebee.png[/img]






Greetz

ViSiON,SiC,SANTi,3LT0N,YanKeeS,MAGNET,THC,T0XiC,LKRG,FANTASIA-PLAY,FANTASIA-M,BHRG,
D2U,WBZ,FLAWL3SS,NOVA,Vik,Rapeseed,SAFC,goldadvance,MEMORY100,scumbag,KaN1vE,Unevano,Pinnz,
Mr Hive,Wayne,cedrict wink,and all P2P groups

FYS

LOOKING FOR ANYTHING YOU WANT TO LOOK AND SOUND BETTER

CM8@hushmail.com